<?xml version="1.0" encoding="UTF-8"?>
<svg version="1.1" xmlns="http://www.w3.org/2000/svg" width="180" height="180">
<path d="M0 0 C4.36653462 2.81628564 7.75827204 6.38807307 10.640625 10.703125 C10.640625 11.363125 10.640625 12.023125 10.640625 12.703125 C11.1975 12.93 11.754375 13.156875 12.328125 13.390625 C17.66018551 16.41692961 21.70540648 21.1928016 23.828125 26.890625 C25.47301783 34.60896827 25.18764698 41.55131196 21.640625 48.703125 C19.14017005 52.50559199 16.45428343 56.12757331 13.640625 59.703125 C14.12273437 60.28320312 14.60484375 60.86328125 15.1015625 61.4609375 C20.44759551 68.072562 20.44759551 68.072562 21.578125 71.765625 C23.03454892 75.79220877 25.68706885 77.90846773 28.734375 80.83984375 C33.13636951 85.14261297 34.22266353 88.95136348 34.6328125 94.9609375 C34.65952027 104.33536621 31.8960305 111.04851264 26.640625 118.703125 C25.980625 119.693125 25.320625 120.683125 24.640625 121.703125 C25.630625 121.373125 26.620625 121.043125 27.640625 120.703125 C27.890625 122.953125 27.890625 122.953125 27.640625 125.703125 C25.765625 128.015625 25.765625 128.015625 23.640625 129.703125 C22.980625 129.703125 22.320625 129.703125 21.640625 129.703125 C21.640625 130.363125 21.640625 131.023125 21.640625 131.703125 C20.2245651 132.49587648 18.80774947 133.28727812 17.390625 134.078125 C16.60171875 134.51898438 15.8128125 134.95984375 15 135.4140625 C14.22140625 135.83945313 13.4428125 136.26484375 12.640625 136.703125 C11.9496875 137.0846875 11.25875 137.46625 10.546875 137.859375 C7.88301324 139.03846135 5.51443058 138.83375253 2.640625 138.703125 C2.640625 137.713125 2.640625 136.723125 2.640625 135.703125 C3.60484375 135.31640625 4.5690625 134.9296875 5.5625 134.53125 C6.8387575 134.0057322 8.11478731 133.47966119 9.390625 132.953125 C10.02484375 132.70046875 10.6590625 132.4478125 11.3125 132.1875 C15.19108524 130.57142282 17.89522735 128.89222328 20.640625 125.703125 C20.021875 125.97125 19.403125 126.239375 18.765625 126.515625 C10.78127957 129.54967626 2.53074359 132.23859033 -6.109375 131.453125 C-9.66192481 131.84785276 -10.99787568 134.11672099 -13.359375 136.703125 C-22.37965958 145.77088477 -33.96098377 149.65037544 -46.546875 150.015625 C-55.15145975 149.86449061 -64.18473799 148.81446503 -71.671875 144.328125 C-74.01851505 142.99435096 -74.90534171 142.61898596 -77.59375 143.1171875 C-79.13998767 143.67238022 -80.67465677 144.26096359 -82.1953125 144.8828125 C-86.53144784 146.52647391 -90.12385308 146.13177546 -94.421875 144.640625 C-102.68943368 139.18755438 -105.89929615 131.3994773 -108.01708984 121.95703125 C-108.8231105 116.64948299 -108.23984514 111.35929666 -107.65625 106.0546875 C-107.07570382 102.83347813 -107.07570382 102.83347813 -108.359375 100.703125 C-109.67093004 89.52265584 -105.38593019 81.51729282 -98.75 72.83203125 C-97.0859366 70.70832658 -97.0859366 70.70832658 -97.359375 67.703125 C-98.6046442 65.76681173 -98.6046442 65.76681173 -100.234375 63.828125 C-105.66879727 57.13354684 -105.80752884 50.86507918 -106.109375 42.515625 C-106.16480469 41.42958984 -106.22023438 40.34355469 -106.27734375 39.22460938 C-106.90931273 23.28175556 -106.90931273 23.28175556 -102.07421875 16.49609375 C-93.11479059 8.09111684 -84.55508197 1.42073661 -71.6796875 1.77734375 C-68.20051252 2.09222457 -64.92447873 2.55243067 -61.546875 3.453125 C-58.41100391 3.81151027 -56.95371615 2.38944675 -54.359375 0.703125 C-49.3049845 -0.88539773 -42.40894681 -1.23565332 -37.31640625 0.33203125 C-34.65355198 0.8369637 -33.49339333 0.00348067 -31.109375 -1.234375 C-21.15819804 -5.43206912 -9.65568687 -4.59040851 0 0 Z M2.640625 69.703125 C1.28234529 71.34952465 -0.05191751 73.01608307 -1.359375 74.703125 C-1.029375 75.363125 -0.699375 76.023125 -0.359375 76.703125 C2.610625 75.713125 5.580625 74.723125 8.640625 73.703125 C5.93059207 71.02980787 5.93059207 71.02980787 2.640625 69.703125 Z M-3.359375 71.703125 C-2.359375 73.703125 -2.359375 73.703125 -2.359375 73.703125 Z M21.640625 122.703125 C22.640625 124.703125 22.640625 124.703125 22.640625 124.703125 Z " fill="#BFFE73" transform="translate(128.359375,21.296875)"/>
<path d="M0 0 C4.36653462 2.81628564 7.75827204 6.38807307 10.640625 10.703125 C10.640625 11.363125 10.640625 12.023125 10.640625 12.703125 C11.1975 12.93 11.754375 13.156875 12.328125 13.390625 C17.66018551 16.41692961 21.70540648 21.1928016 23.828125 26.890625 C25.47301783 34.60896827 25.18764698 41.55131196 21.640625 48.703125 C19.14017005 52.50559199 16.45428343 56.12757331 13.640625 59.703125 C14.12273437 60.28320312 14.60484375 60.86328125 15.1015625 61.4609375 C20.44759551 68.072562 20.44759551 68.072562 21.578125 71.765625 C23.03454892 75.79220877 25.68706885 77.90846773 28.734375 80.83984375 C33.13636951 85.14261297 34.22266353 88.95136348 34.6328125 94.9609375 C34.65952027 104.33536621 31.8960305 111.04851264 26.640625 118.703125 C25.980625 119.693125 25.320625 120.683125 24.640625 121.703125 C25.630625 121.373125 26.620625 121.043125 27.640625 120.703125 C27.890625 122.953125 27.890625 122.953125 27.640625 125.703125 C25.765625 128.015625 25.765625 128.015625 23.640625 129.703125 C22.980625 129.703125 22.320625 129.703125 21.640625 129.703125 C21.640625 130.363125 21.640625 131.023125 21.640625 131.703125 C20.2245651 132.49587648 18.80774947 133.28727812 17.390625 134.078125 C16.60171875 134.51898438 15.8128125 134.95984375 15 135.4140625 C14.22140625 135.83945313 13.4428125 136.26484375 12.640625 136.703125 C11.9496875 137.0846875 11.25875 137.46625 10.546875 137.859375 C7.88301324 139.03846135 5.51443058 138.83375253 2.640625 138.703125 C2.640625 137.713125 2.640625 136.723125 2.640625 135.703125 C3.60484375 135.31640625 4.5690625 134.9296875 5.5625 134.53125 C6.8387575 134.0057322 8.11478731 133.47966119 9.390625 132.953125 C10.02484375 132.70046875 10.6590625 132.4478125 11.3125 132.1875 C15.19108524 130.57142282 17.89522735 128.89222328 20.640625 125.703125 C20.021875 125.97125 19.403125 126.239375 18.765625 126.515625 C10.78127957 129.54967626 2.53074359 132.23859033 -6.109375 131.453125 C-9.66192481 131.84785276 -10.99787568 134.11672099 -13.359375 136.703125 C-22.37965958 145.77088477 -33.96098377 149.65037544 -46.546875 150.015625 C-55.15145975 149.86449061 -64.18473799 148.81446503 -71.671875 144.328125 C-74.01851505 142.99435096 -74.90534171 142.61898596 -77.59375 143.1171875 C-79.13998767 143.67238022 -80.67465677 144.26096359 -82.1953125 144.8828125 C-86.53144784 146.52647391 -90.12385308 146.13177546 -94.421875 144.640625 C-102.68943368 139.18755438 -105.89929615 131.3994773 -108.01708984 121.95703125 C-108.8231105 116.64948299 -108.23984514 111.35929666 -107.65625 106.0546875 C-107.07570382 102.83347813 -107.07570382 102.83347813 -108.359375 100.703125 C-109.67093004 89.52265584 -105.38593019 81.51729282 -98.75 72.83203125 C-97.0859366 70.70832658 -97.0859366 70.70832658 -97.359375 67.703125 C-98.35245321 66.36462829 -99.35294552 65.03161191 -100.359375 63.703125 C-101.046875 61.453125 -101.046875 61.453125 -101.359375 59.703125 C-98.359375 59.703125 -98.359375 59.703125 -95.984375 62.015625 C-94.685 63.3459375 -94.685 63.3459375 -93.359375 64.703125 C-86.44997384 69.61243635 -78.63066497 70.72228524 -70.359375 69.703125 C-56.25413294 65.88849979 -39.02089634 57.16416317 -31.484375 44.203125 C-29.44642267 40.14837556 -27.84020714 35.98974436 -26.359375 31.703125 C-26.029375 31.703125 -25.699375 31.703125 -25.359375 31.703125 C-24.54205318 39.22248573 -27.42525945 44.89938002 -31.98046875 50.8046875 C-39.86755525 59.31934862 -50.28466673 64.90550774 -60.734375 69.640625 C-78.75735632 77.81948219 -93.57944717 87.80613913 -102.53125 106.09765625 C-103.56914308 109.36310286 -103.66072317 112.21701176 -103.671875 115.640625 C-103.68863281 116.82527344 -103.70539063 118.00992188 -103.72265625 119.23046875 C-103.18808735 124.34048755 -101.60196442 127.58176382 -97.796875 131.015625 C-93.31214234 134.12043992 -89.73233429 134.26460788 -84.359375 133.703125 C-83.0061777 133.1448668 -81.67076327 132.54105251 -80.359375 131.890625 C-77.71881806 130.75444911 -76.81012666 130.53697763 -74.0703125 131.546875 C-71.734375 132.890625 -71.734375 132.890625 -69.6328125 134.30859375 C-60.89005976 139.67141631 -47.75177315 139.41572001 -37.98193359 137.15234375 C-29.40822192 134.43306244 -22.64572444 129.99149243 -16.375 123.5234375 C-12.97771444 120.45534628 -10.07880595 120.61522978 -5.671875 120.828125 C3.85495494 120.87003188 10.85020534 117.31484941 17.640625 110.703125 C23.05741558 104.15204921 26.1833754 97.30363659 25.8828125 88.6875 C25.45469016 85.17965886 24.4455939 82.73081478 22.640625 79.703125 C18.81970295 76.85616347 16.1644675 75.60745663 11.453125 75.203125 C7.29166676 74.65735998 6.15456378 73.95029592 3.640625 70.703125 C1.5781256 72.51535034 1.5781256 72.51535034 -0.359375 74.703125 C-0.359375 75.693125 -0.359375 76.683125 -0.359375 77.703125 C-1.4830418 78.89489282 -2.62029931 80.07626567 -3.81640625 81.1953125 C-5.53941685 82.87906463 -7.05873598 84.67220798 -8.609375 86.515625 C-17.05791522 96.20498755 -26.95025025 103.91729033 -39.359375 107.703125 C-42.359375 107.890625 -42.359375 107.890625 -44.359375 107.703125 C-41.88495082 104.79400468 -39.40448496 103.77787662 -35.859375 102.453125 C-23.6965829 97.53218858 -13.05017604 90.21130278 -6.359375 78.703125 C-5.35677993 75.69533979 -5.05622858 73.16491853 -4.796875 70.015625 C-4.67119141 68.52482422 -4.67119141 68.52482422 -4.54296875 67.00390625 C-4.48238281 66.24464844 -4.42179687 65.48539062 -4.359375 64.703125 C-5.596875 65.198125 -5.596875 65.198125 -6.859375 65.703125 C-10.9467733 66.87095309 -14.12860844 66.8490135 -18.359375 66.703125 C-18.359375 66.043125 -18.359375 65.383125 -18.359375 64.703125 C-17.53695312 64.55617188 -16.71453125 64.40921875 -15.8671875 64.2578125 C-4.93025334 62.06032226 4.77420709 57.86441998 11.640625 48.703125 C15.7049458 41.76845302 16.73855597 34.63511606 15.640625 26.703125 C13.67327236 20.64633149 9.02575996 16.44127329 3.46484375 13.5859375 C-0.2351356 12.42937411 -3.77086597 12.36320708 -7.609375 12.390625 C-8.74391113 12.39364624 -8.74391113 12.39364624 -9.90136719 12.39672852 C-15.54208968 12.49801891 -20.16210837 13.485781 -25.359375 15.703125 C-29.99317782 16.88622359 -29.99317782 16.88622359 -32.359375 15.703125 C-40.03894398 14.85253983 -45.52655506 15.59938463 -52.10546875 19.70703125 C-55.83898332 21.35702469 -58.63925273 19.94316576 -62.359375 18.703125 C-74.1978373 17.76405322 -82.48372692 19.18261151 -91.671875 26.828125 C-99.16081735 34.02269068 -102.11817732 41.39740594 -102.359375 51.703125 C-103.019375 51.703125 -103.679375 51.703125 -104.359375 51.703125 C-104.41996094 50.77628906 -104.48054688 49.84945312 -104.54296875 48.89453125 C-104.62675781 47.69699219 -104.71054688 46.49945313 -104.796875 45.265625 C-104.87808594 44.07066406 -104.95929688 42.87570313 -105.04296875 41.64453125 C-105.03593614 38.81742256 -105.03593614 38.81742256 -106.359375 37.703125 C-106.93375668 22.46406092 -106.93375668 22.46406092 -102.296875 17.140625 C-101.01513382 15.96048525 -99.70167288 14.81390251 -98.359375 13.703125 C-97.73546875 13.08050781 -97.1115625 12.45789062 -96.46875 11.81640625 C-89.82434455 5.37457413 -82.13411351 2.3363071 -72.9453125 1.640625 C-70.03077994 1.71106687 -67.39540753 2.21717968 -64.546875 2.828125 C-60.42587172 3.76579457 -60.42587172 3.76579457 -56.484375 2.390625 C-55.4325 1.5553125 -55.4325 1.5553125 -54.359375 0.703125 C-49.3049845 -0.88539773 -42.40894681 -1.23565332 -37.31640625 0.33203125 C-34.65355198 0.8369637 -33.49339333 0.00348067 -31.109375 -1.234375 C-21.15819804 -5.43206912 -9.65568687 -4.59040851 0 0 Z M-3.359375 71.703125 C-2.359375 73.703125 -2.359375 73.703125 -2.359375 73.703125 Z M21.640625 122.703125 C22.640625 124.703125 22.640625 124.703125 22.640625 124.703125 Z " fill="#14C46D" transform="translate(128.359375,21.296875)"/>
<path d="M0 0 C0.66 0.33 1.32 0.66 2 1 C2.99 0.67 3.98 0.34 5 0 C5.25 2.25 5.25 2.25 5 5 C3.125 7.3125 3.125 7.3125 1 9 C0.34 9 -0.32 9 -1 9 C-1 9.66 -1 10.32 -1 11 C-2.4160599 11.79275148 -3.83287553 12.58415312 -5.25 13.375 C-6.03890625 13.81585938 -6.8278125 14.25671875 -7.640625 14.7109375 C-8.80851563 15.34902344 -8.80851563 15.34902344 -10 16 C-10.6909375 16.3815625 -11.381875 16.763125 -12.09375 17.15625 C-14.75761176 18.33533635 -17.12619442 18.13062753 -20 18 C-20 17.01 -20 16.02 -20 15 C-19.04738281 14.62488281 -18.09476563 14.24976563 -17.11328125 13.86328125 C-15.84608439 13.34701586 -14.57917218 12.83005137 -13.3125 12.3125 C-12.68666016 12.06822266 -12.06082031 11.82394531 -11.41601562 11.57226562 C-7.0107842 9.75020655 -4.099801 7.60872355 -1 4 C-0.13880866 1.82653432 -0.13880866 1.82653432 0 0 Z " fill="#74DCA7" transform="translate(151,142)"/>
<path d="M0 0 C0 0.33 0 0.66 0 1 C-1.46759766 1.22042969 -1.46759766 1.22042969 -2.96484375 1.4453125 C-12.08855687 2.9467125 -20.04622509 4.5828149 -25.8046875 12.47265625 C-27.32296872 14.93895517 -28.69838889 17.41384808 -30 20 C-30.57427734 21.14082031 -30.57427734 21.14082031 -31.16015625 22.3046875 C-31.43730469 22.86414063 -31.71445312 23.42359375 -32 24 C-33.00166319 21.39087732 -33.12220063 20.30524592 -32.06640625 17.66796875 C-24.06793251 4.47568089 -15.51166317 -0.6877092 0 0 Z " fill="#F4FFE7" transform="translate(63,43)"/>
<path d="M0 0 C2.34145859 3.71599906 2.36259409 7.17862965 2.5625 11.5 C2.79066044 17.32748383 2.79066044 17.32748383 4 23 C3.34 23 2.68 23 2 23 C1.67 23.99 1.34 24.98 1 26 C-2.51565076 16.84341809 -1.96941398 9.45658267 0 0 Z " fill="#3FD07E" transform="translate(22,125)"/>
<path d="M0 0 C6.90786612 -0.50959668 12.2993861 -0.20237563 18 4 C20.25317099 6.1616961 22.29510496 8.37807808 24 11 C24 11.66 24 12.32 24 13 C20.70216285 11.90072095 20.16628004 11.21616406 18.125 8.5625 C14.10802704 3.77152493 10.79260003 3.02758453 4.6875 2.375 C3.12559683 2.24275126 1.56324232 2.11534604 0 2 C0 1.34 0 0.68 0 0 Z " fill="#F4FFE6" transform="translate(117,36)"/>
<path d="M0 0 C0 0.99 0 1.98 0 3 C-1.89091736 3.84442881 -3.78797515 4.67511587 -5.6875 5.5 C-7.27111328 6.19609375 -7.27111328 6.19609375 -8.88671875 6.90625 C-11.85627816 7.94950801 -13.89195063 8.23065301 -17 8 C-14.43582853 4.95337118 -11.59030769 3.79048902 -7.9375 2.3125 C-6.87402344 1.87550781 -5.81054688 1.43851562 -4.71484375 0.98828125 C-2 0 -2 0 0 0 Z " fill="#1BC865" transform="translate(101,121)"/>
<path d="M0 0 C0.33 0 0.66 0 1 0 C1 4.29 1 8.58 1 13 C1.99 13.33 2.98 13.66 4 14 C5.3125 17.375 5.3125 17.375 6 21 C5.34 21.99 4.68 22.98 4 24 C-1.12146904 16.31779644 -0.3881303 8.88387128 0 0 Z " fill="#74DCA3" transform="translate(23,60)"/>
<path d="M0 0 C2.50014115 3.74095194 1.90042304 6.44209421 1.125 10.75 C0.92132812 11.92046875 0.71765625 13.0909375 0.5078125 14.296875 C0.34023438 15.18890625 0.17265625 16.0809375 0 17 C-0.66 16.67 -1.32 16.34 -2 16 C-1.85764543 14.27054347 -1.71095618 12.54144346 -1.5625 10.8125 C-1.48128906 9.84957031 -1.40007813 8.88664063 -1.31640625 7.89453125 C-1.02333849 5.21350398 -0.57296246 2.6337014 0 0 Z " fill="#84E0B0" transform="translate(22,125)"/>
<path d="M0 0 C0.33 0.66 0.66 1.32 1 2 C0.67 2.66 0.34 3.32 0 4 C-1.98 4 -3.96 4 -6 4 C-6 3.01 -6 2.02 -6 1 C-4.02 0.67 -2.04 0.34 0 0 Z " fill="#59D597" transform="translate(137,156)"/>
<path d="M0 0 C1.134375 0.020625 2.26875 0.04125 3.4375 0.0625 C3.4375 0.7225 3.4375 1.3825 3.4375 2.0625 C1.7875 2.0625 0.1375 2.0625 -1.5625 2.0625 C-2.2225 3.3825 -2.8825 4.7025 -3.5625 6.0625 C-3.94468767 4.40635343 -4.27645102 2.73792976 -4.5625 1.0625 C-3.5625 0.0625 -3.5625 0.0625 0 0 Z " fill="#90E35E" transform="translate(55.5625,114.9375)"/>
<path d="M0 0 C-0.33 0.66 -0.66 1.32 -1 2 C-3.64 2 -6.28 2 -9 2 C-9 1.34 -9 0.68 -9 0 C-5.62182575 -0.84454356 -3.32534757 -1.10844919 0 0 Z " fill="#18C764" transform="translate(119,86)"/>
<path d="M0 0 C2 3 2 3 2 6 C0.68 6.33 -0.64 6.66 -2 7 C-2 5.35 -2 3.7 -2 2 C-1.34 2 -0.68 2 0 2 C0 1.34 0 0.68 0 0 Z " fill="#04AD6F" transform="translate(126,93)"/>
</svg>
